<?xml version="1.0" encoding="UTF-8"?>
<svg id="Layer_1" data-name="Layer 1" xmlns="http://www.w3.org/2000/svg" viewBox="0 0 720 648.1">
  <defs>
    <style>
      .cls-1 {
        fill: #fef194;
      }

      .cls-2 {
        fill: #f2ad34;
      }

      .cls-3 {
        fill: #781219;
      }

      .cls-4 {
        fill: #ffb845;
      }

      .cls-5 {
        fill: #b27c24;
      }

      .cls-6 {
        fill: #ffd900;
      }

      .cls-7 {
        fill: #e19b38;
      }
    </style>
  </defs>
  <g>
    <path class="cls-6" d="m404.79,645.81c-34.47,0-60.59-6.98-73.09-11.14-7.4-2.46-31.54-11.26-31.54-21.01,0-4.83,5.69-8.83,17.39-12.25.47-.12,9.74-2.49,15.63-3.55,8.48-2.33,16.19-4.99,22.91-7.91,10.69-4.65,17.34-13.19,17.34-22.3v-55.82c0-2.23-.03-4.31-.06-6.25-.02-1.14-.04-2.23-.05-3.28-.09-9.47-5.74-18.16-14.39-22.15-70.31-32.36-162.04-71.96-199.74-76.84-10.07-1.3-18.1-8.84-19.98-18.75l-1.32-6.92-9.71,5.07c-6.22,3.24-13.21,4.96-20.23,4.96-4.81,0-9.56-.79-14.11-2.34l-80.04-27.3c-5.67-1.93-9.82-6.58-11.1-12.43-1.29-5.85.53-11.81,4.86-15.94l27.38-26.13c2.29-2.19,5.26-3.39,8.35-3.39,5.9,0,12.26,4.67,12.26,12.21v15.96c.17,1.52,2.5,18.21,23,24.06,2.2.63,4.73.93,7.73.93,8.19,0,18.26-2.36,28-4.64,9.96-2.33,19.36-4.53,27.28-4.53,9.26,0,15.06,3.13,17.72,9.56,8.19,19.76,27.69,32.84,56.4,37.84,22.57,3.93,137.22,59.82,185.47,83.67,3.46,1.71,7.16,2.58,11.01,2.58,7.56,0,14.62-3.38,19.37-9.26l5.41-6.69c4.73-5.86,8.8-12.26,12.09-19.02l11.33-23.3c2.17-4.46,6.15-7.8,10.92-9.17l15.83-4.52c2.55-.73,5.04-1.68,7.4-2.83,20.26-9.88,123.66-59.85,169.26-73.68,1.79-.54,3.15-1.95,3.62-3.77.48-1.83-.02-3.74-1.34-5.1-26.73-27.74-33.06-29.14-34.06-29.14-2.97,0-3.94-1.53-4.25-2.44-1.12-3.29,3.98-9.35,15.18-18l1.05-.81,1.22.5c2,.82,49.14,20.52,70.15,56.93,2.74,4.75,3.11,10.35,1.01,15.37-2.06,4.94-6.23,8.56-11.42,9.92-39.04,10.24-136.2,37.88-195.11,73.39-4.61,2.78-9.82,4.69-15.49,5.67l-18.3,3.18c-1.73,6.73-9.36,35.39-19.34,56.81-1.39,4.56-4.68,9.59-8.16,14.92-4.92,7.52-10.49,16.05-10.55,23.57-.22,26.48-.62,37.45-.63,37.56,0,8.93,6.47,17.36,16.87,21.93,7.62,3.34,16.5,6.32,26.41,8.84,3.02.61,5.86,1.26,8.44,1.93,1.43.3,3.28.91,3.36.94,11.41,3.37,16.99,7.35,16.99,12.13,0,9.75-24.14,18.55-31.54,21.01-12.5,4.16-38.63,11.14-73.09,11.14Z"/>
    <path class="cls-3" d="m644.34,272.69s48.18,19.81,69.03,55.95c4.93,8.55.54,19.43-9,21.94-38.61,10.12-136.41,37.9-195.71,73.64-4.51,2.72-9.52,4.48-14.71,5.38l-19.76,3.44s-8.23,33.6-19.63,57.99c-3.17,10.75-18.75,25.67-18.86,39.28-.23,26.75-.63,37.5-.63,37.5,0,9.91,6.89,19.13,18.24,24.11,6.68,2.93,15.47,6.09,26.82,8.97,3.03.61,5.84,1.25,8.42,1.93,1.32.27,3.16.88,3.16.88,9.77,2.89,15.42,6.3,15.42,9.96,0,10.42-45.82,29.86-102.35,29.86s-102.35-19.45-102.35-29.86c0-3.7,5.77-7.14,15.74-10.05,0,0,9.62-2.46,15.49-3.51,9.65-2.64,17.32-5.44,23.32-8.04,11.57-5.03,18.72-14.32,18.72-24.4v-25.72s0-30.1,0-30.1c0-3.55-.08-6.7-.11-9.54-.1-10.43-6.25-19.84-15.73-24.2-68.02-31.3-162-72.06-200.4-77.03-9.05-1.17-16.32-7.95-18.02-16.91l-1.89-9.94-12.44,6.49c-5.98,3.12-12.56,4.7-19.17,4.7-4.5,0-9.02-.73-13.37-2.22l-80.04-27.3c-10.44-3.56-13.38-16.93-5.4-24.54l27.38-26.13c2-1.91,4.41-2.76,6.77-2.76,5.1,0,9.97,3.97,9.97,9.92v16.08s1.76,19.61,24.66,26.14c2.52.72,5.33,1.02,8.36,1.02,16.63,0,39.71-9.17,55.29-9.17,7.39,0,13.09,2.06,15.61,8.15,8.81,21.24,29.94,34.31,58.12,39.22,22.4,3.9,138.23,60.42,184.84,83.47,3.84,1.9,7.95,2.81,12.02,2.81,8.01,0,15.85-3.55,21.15-10.11l5.41-6.69c4.85-6,9-12.53,12.37-19.46l11.33-23.3c1.89-3.88,5.34-6.78,9.49-7.97l15.83-4.52c2.68-.77,5.27-1.75,7.77-2.97,20.79-10.14,123.53-59.78,168.93-73.55,5.48-1.66,7.24-8.54,3.27-12.66-11.25-11.67-29.72-29.84-35.7-29.84-8.81,0,12.33-16.34,12.33-16.34m-.71-5.24l-2.09,1.62c-.17.13-4.09,3.17-7.94,6.7-7.07,6.49-9.24,10.24-8.01,13.86.41,1.19,1.83,3.95,6.31,3.99,2.34.45,11.76,6.91,32.51,28.44,1.09,1.13.9,2.43.77,2.94-.13.5-.59,1.71-2.07,2.16-45.77,13.88-149.31,63.92-169.6,73.81-2.24,1.09-4.6,2-7.02,2.69l-15.83,4.52c-5.4,1.54-9.9,5.32-12.35,10.37l-11.33,23.3c-3.22,6.61-7.19,12.87-11.81,18.58l-5.41,6.69c-4.32,5.34-10.73,8.41-17.59,8.41-3.49,0-6.85-.79-9.99-2.34-60.03-29.68-164.03-80.04-186.09-83.87-19.45-3.38-44.73-12.46-54.68-36.46-3.02-7.28-9.69-10.97-19.84-10.97-8.19,0-17.72,2.23-27.81,4.59-9.61,2.25-19.55,4.58-27.48,4.58-2.75,0-5.13-.28-7.1-.85-18.56-5.3-21.09-20.11-21.34-22v-15.81c0-8-6.53-14.5-14.55-14.5-3.68,0-7.21,1.43-9.93,4.02l-27.38,26.13c-4.92,4.69-6.98,11.45-5.52,18.09,1.46,6.64,6.17,11.91,12.6,14.1l80.04,27.3c4.79,1.63,9.79,2.46,14.85,2.46,7.38,0,14.74-1.8,21.29-5.22l6.98-3.64.74,3.89c2.07,10.89,10.89,19.16,21.94,20.59,37.41,4.85,128.91,44.36,199.08,76.65,7.86,3.62,12.98,11.5,13.06,20.09,0,1.06.03,2.16.05,3.32.03,1.96.06,3.99.06,6.19v55.81c0,8.18-6.12,15.92-15.97,20.2-6.59,2.86-14.16,5.48-22.51,7.77-5.98,1.08-15.22,3.44-15.61,3.54l-.07.02-.07.02c-8.17,2.39-19.04,6.48-19.04,14.45,0,10.58,20.74,19.07,33.11,23.18,12.64,4.21,39.03,11.26,73.82,11.26s61.18-7.05,73.82-11.26c12.37-4.12,33.11-12.6,33.11-23.18,0-7.88-10.61-11.95-18.63-14.33-.41-.14-2.07-.67-3.48-.97-2.59-.68-5.43-1.33-8.45-1.93-9.76-2.48-18.51-5.41-26-8.7-9.53-4.19-15.47-11.78-15.5-19.84.04-1.13.41-12.32.63-37.53.06-6.85,5.44-15.08,10.18-22.34,3.53-5.41,6.88-10.52,8.39-15.34,9.56-20.56,16.78-46.9,19.05-55.63l16.84-2.93c5.95-1.04,11.43-3.04,16.28-5.97,58.65-35.35,155.56-62.92,194.5-73.13,5.89-1.54,10.61-5.65,12.95-11.25,2.37-5.69,1.96-12.03-1.14-17.4-21.39-37.07-69.23-57.07-71.26-57.9l-2.45-1.01h0Z"/>
  </g>
  <g>
    <path class="cls-1" d="m215.2,385.24c-8.69,0-15.49-4.53-15.49-10.31s6.81-10.31,15.49-10.31,15.49,4.53,15.49,10.31-6.81,10.31-15.49,10.31Z"/>
    <path class="cls-3" d="m215.2,366.33c7.61,0,13.78,3.85,13.78,8.6s-6.17,8.6-13.78,8.6-13.78-3.85-13.78-8.6,6.17-8.6,13.78-8.6m0-3.43c-9.65,0-17.21,5.28-17.21,12.03s7.56,12.03,17.21,12.03,17.21-5.28,17.21-12.03-7.56-12.03-17.21-12.03h0Z"/>
  </g>
  <g>
    <path class="cls-1" d="m334.03,434.76c-9.13,0-16.46-4.31-17.69-10.08-4.87-.09-8.65-2.78-8.65-6.19s3.91-6.19,8.89-6.19c2.27,0,4.39.57,6,1.59,3.2-1.75,7.21-2.71,11.44-2.71,10.02,0,17.87,5.18,17.87,11.79s-7.85,11.79-17.87,11.79Z"/>
    <path class="cls-3" d="m334.03,412.89c8.92,0,16.15,4.51,16.15,10.08s-7.23,10.08-16.15,10.08-16.15-4.51-16.15-10.08c0-.03.01-.05.01-.08-.42.05-.86.08-1.31.08-3.96,0-7.17-2-7.17-4.48s3.21-4.48,7.17-4.48c2.44,0,4.6.76,5.89,1.93,2.93-1.88,7.02-3.05,11.55-3.05m0-3.43c-4.15,0-8.12.87-11.41,2.48-1.74-.87-3.83-1.35-6.03-1.35-5.95,0-10.61,3.48-10.61,7.91,0,4.04,3.87,7.28,9.05,7.83,2.11,5.9,9.7,10.16,19,10.16,10.98,0,19.58-5.93,19.58-13.51s-8.6-13.51-19.58-13.51h0Z"/>
  </g>
  <g>
    <path class="cls-1" d="m615.85,338.24c-16.65,0-30.2-8.74-30.2-19.49s13.55-19.49,30.2-19.49,30.2,8.74,30.2,19.49-13.55,19.49-30.2,19.49Z"/>
    <path class="cls-3" d="m615.85,300.98c15.73,0,28.49,7.96,28.49,17.77s-12.75,17.77-28.49,17.77-28.49-7.96-28.49-17.77,12.75-17.77,28.49-17.77m0-3.43c-17.9,0-31.92,9.32-31.92,21.21s14.02,21.21,31.92,21.21,31.92-9.32,31.92-21.21-14.02-21.21-31.92-21.21h0Z"/>
  </g>
  <g>
    <path class="cls-1" d="m95.42,330.28c-3.26,0-6.23-1.01-8.14-2.74-.81.07-1.63.11-2.46.11-9.6,0-17.12-4.97-17.12-11.32s7.52-11.32,17.12-11.32,17.11,4.97,17.11,11.32c0,.44-.05.89-.14,1.35,2.47,1.31,3.9,3.31,3.9,5.55,0,3.96-4.51,7.05-10.27,7.05Z"/>
    <path class="cls-3" d="m84.82,306.72c8.5,0,15.4,4.3,15.4,9.61,0,.8-.2,1.56-.5,2.31,2.54.93,4.26,2.62,4.26,4.59,0,2.95-3.83,5.34-8.56,5.34-3.26,0-6.06-1.15-7.51-2.82-1,.13-2.04.19-3.1.19-8.5,0-15.4-4.3-15.4-9.61s6.89-9.61,15.4-9.61m0-3.43c-10.56,0-18.83,5.73-18.83,13.04s8.27,13.04,18.83,13.04c.64,0,1.27-.02,1.9-.06,2.22,1.71,5.33,2.69,8.7,2.69,6.72,0,11.99-3.85,11.99-8.77,0-2.51-1.39-4.81-3.78-6.43,0-.16.01-.31.01-.47,0-7.31-8.27-13.04-18.83-13.04h0Z"/>
  </g>
  <g>
    <path class="cls-1" d="m557.42,359.43c-5.67,0-10.12-3.03-10.12-6.9s4.44-6.9,10.12-6.9,10.12,3.03,10.12,6.9-4.44,6.9-10.12,6.9Z"/>
    <path class="cls-3" d="m557.42,347.2c4.72,0,8.55,2.39,8.55,5.34s-3.83,5.34-8.55,5.34-8.55-2.39-8.55-5.34,3.83-5.34,8.55-5.34m0-3.12c-6.55,0-11.68,3.72-11.68,8.46s5.13,8.46,11.68,8.46,11.68-3.72,11.68-8.46-5.13-8.46-11.68-8.46h0Z"/>
  </g>
  <g>
    <path class="cls-1" d="m283.93,402.22c-5.76,0-10.27-3.1-10.27-7.05s4.51-7.05,10.27-7.05,10.27,3.1,10.27,7.05-4.51,7.05-10.27,7.05Z"/>
    <path class="cls-3" d="m283.93,389.83c4.72,0,8.55,2.39,8.55,5.34s-3.83,5.34-8.55,5.34-8.55-2.39-8.55-5.34,3.83-5.34,8.55-5.34m0-3.43c-6.72,0-11.99,3.85-11.99,8.77s5.27,8.77,11.99,8.77,11.99-3.85,11.99-8.77-5.27-8.77-11.99-8.77h0Z"/>
  </g>
  <polygon class="cls-5" points="304.98 228.81 284.57 219.85 382.25 162.33 511.71 204.62 493.9 216.93 384.27 181.99 304.98 228.81"/>
  <path class="cls-2" d="m515.74,225.49l-16.83,10.07c-3.6,2.15-7.97,2.18-14.31.08l-70-23.12-11.08,6.63,49.45,16.33c6.34,2.09,7.55,3.96,3.95,6.11l-15.4,9.21c-3.6,2.15-7.97,2.17-14.31.08l-49.45-16.33-12.37,7.4,69.99,23.12c6.34,2.09,7.55,3.96,3.95,6.11l-16.83,10.07c-3.6,2.15-7.97,2.18-14.31.08l-117.67-38.87c-6.34-2.09-7.55-3.96-3.95-6.11l93.23-55.76c3.6-2.15,7.97-2.18,14.31-.08l117.67,38.87c6.34,2.09,7.55,3.96,3.95,6.11Z"/>
  <polygon class="cls-5" points="392.28 202.04 392.28 216.88 435.79 230.92 457.51 218.95 392.28 202.04"/>
  <polygon class="cls-5" points="354.09 224.83 354.09 238.96 419.98 260.96 436.9 249.86 354.09 224.83"/>
  <path class="cls-2" d="m587.63,180.39l-45.32,27.1c-3.6,2.15-7.75,2.25-13.6.32l-119.09-39.34c-5.85-1.93-6.84-3.73-3.24-5.88l93.23-55.76c3.6-2.15,7.75-2.25,13.6-.31l36.26,11.98c5.85,1.93,6.84,3.73,3.24,5.88l-71.22,42.59,32.06,10.59,23.31-13.94c3.6-2.15,7.75-2.25,13.6-.32l33.93,11.21c5.85,1.93,6.84,3.73,3.24,5.88Z"/>
  <polygon class="cls-5" points="423.59 156.1 402.64 146.49 502.87 88.26 550.24 104.61 531.42 116.14 504.32 106.51 423.59 156.1"/>
  <path class="cls-5" d="m470.17,149.88v15.54l41.32,13.54,25.36-15.34s4.65-3.27,13.6-.32l16.18,5.34,3.32,1.36,15.79-10.19-44.35-14.11-30.46,15.72-40.76-11.54Z"/>
  <polygon class="cls-5" points="174.32 113.53 196.13 100.98 354.7 153.55 337.38 165.95 174.32 113.53"/>
  <path class="cls-2" d="m200.48,212.72l-44.92-14.84c-6.93-2.29-8.4-4.24-4.8-6.39l70.65-42.25-40.76-13.46c-6.93-2.29-8.4-4.24-4.8-6.39l17.41-10.41c3.6-2.15,8.23-2.09,15.16.2l146.39,48.35c6.93,2.29,8.4,4.24,4.8,6.39l-17.41,10.41c-3.6,2.15-8.23,2.09-15.16-.2l-40.76-13.46-70.65,42.25c-3.6,2.15-8.23,2.09-15.16-.2Z"/>
  <polygon class="cls-5" points="226.59 130.25 226.59 146.38 163.88 183.64 145.84 176.06 226.59 130.25"/>
  <path class="cls-2" d="m219.82,100.98l93.23-55.76c3.6-2.15,7.75-2.25,13.6-.31l37.67,12.44c4.91,1.62,6.8,3.32,6.45,6.14l-2.4,20.98c-.09,1.57-.11,2.24,1.77,2.85l2.11.7c1.87.62,3.29.42,6.66-.07l44.28-7.15c5.97-.97,10.17-.65,15.08.97l37.9,12.52c5.85,1.93,6.84,3.73,3.24,5.88l-93.24,55.76c-3.6,2.15-7.75,2.25-13.6.31l-36.03-11.9c-6.08-2.01-6.84-3.73-3.24-5.88l50.65-30.29-29.49,4.82c-6.12,1.05-10.92.67-17-1.34l-9.36-3.09c-6.08-2.01-8.3-3.94-7.8-6.85l1.88-13.94-50.64,30.29c-3.6,2.15-7.76,2.25-13.6.31l-34.86-11.51c-5.85-1.93-6.84-3.73-3.24-5.88Z"/>
  <path class="cls-5" d="m361.8,66.34v24.12l61.38-9.67s7.01-1.69,15.08.97l21.49,7.12,15.9-9.03-48.08-15.98-57.49,8.44-8.29-5.97Z"/>
  <polygon class="cls-5" points="219.87 85.23 219.87 100.98 320.43 44.69 363.89 58.8 366.52 42.05 317.54 25.57 219.87 85.23"/>
  <polygon class="cls-5" points="398.04 84 398.04 100.57 349.61 128.7 330.18 122.75 398.04 84"/>
  <polygon class="cls-5" points="323.35 63.28 323.35 96.43 292.57 85.61 323.35 63.28"/>
  <g>
    <path class="cls-1" d="m82.62,345.43c-5.76,0-10.27-3.1-10.27-7.05s4.51-7.05,10.27-7.05,10.27,3.1,10.27,7.05-4.51,7.05-10.27,7.05Z"/>
    <path class="cls-3" d="m82.62,333.04c4.72,0,8.55,2.39,8.55,5.34s-3.83,5.34-8.55,5.34-8.55-2.39-8.55-5.34,3.83-5.34,8.55-5.34m0-3.43c-6.72,0-11.99,3.85-11.99,8.77s5.27,8.77,11.99,8.77,11.99-3.85,11.99-8.77-5.27-8.77-11.99-8.77h0Z"/>
  </g>
  <g>
    <path class="cls-7" d="m410.89,421.46c-6.32,0-12.52-1.14-18.42-3.39l-325.84-124.26c-10.34-3.94-17.28-14.02-17.28-25.09v-76.94c0-4.59,3.49-7.8,8.49-7.8,1.09,0,2.2.16,3.29.47,3.29.94,7.66,2.74,7.85,2.81l90.5,32.89c1.81.66,3.14,2.18,3.56,4.06l14.01,63.95c.16.72.75.8,1,.8.34,0,.78-.13.97-.72l15.07-49.25c.73-2.37,2.88-3.96,5.35-3.96.65,0,1.3.11,1.91.34l191.13,69.47c6.27,2.35,12.82,3.54,19.48,3.54,11.14,0,21.91-3.31,31.13-9.56l92.37-62.66c2.81-1.91,6.1-2.92,9.49-2.92,4.36,0,8.49,1.66,11.62,4.61l5.65-15.88c1.22-3.41,3.44-6.29,6.44-8.33l65.01-44.1c3.63-2.46,7.95-3.76,12.51-3.76.95,0,1.91.06,2.86.17,1.94.23,3.85.35,5.67.35,9.27,0,15.52-2.99,21.56-5.88l1.07-.51c1.07-.51,2.2-.77,3.37-.77,4.32,0,7.84,3.52,7.84,7.84v80.86c0,5.66-4.1,10.37-9.76,11.19-2.75.4-6.11.6-9.99.6-1.74,0-3.61-.04-5.55-.12-.38-.02-.76-.02-1.14-.02-5.69,0-11.11,1.73-15.66,5l-205.41,147.3c-8.84,6.34-19.26,9.69-30.14,9.69Z"/>
    <path class="cls-3" d="m680.7,161.42c2.92,0,5.55,2.34,5.55,5.55v80.86c0,4.51-3.34,8.28-7.8,8.92-2.91.42-6.28.58-9.66.58-1.84,0-3.68-.05-5.46-.12-.41-.02-.83-.03-1.24-.03-6.09,0-12.04,1.87-17,5.42l-205.41,147.3c-8.52,6.11-18.62,9.26-28.8,9.26-5.93,0-11.9-1.07-17.61-3.24l-325.84-124.26c-9.52-3.63-15.81-12.76-15.81-22.95v-76.94c0-3.62,2.84-5.51,6.2-5.51.87,0,1.77.13,2.66.38,3.2.91,7.6,2.73,7.6,2.73l90.6,32.93c1.07.39,1.86,1.29,2.1,2.4l14.01,63.95c.38,1.72,1.81,2.6,3.24,2.6,1.34,0,2.67-.77,3.16-2.34l15.07-49.25c.44-1.43,1.75-2.34,3.16-2.34.37,0,.76.06,1.13.2l191.13,69.47c6.57,2.46,13.43,3.68,20.27,3.68,11.41,0,22.72-3.38,32.41-9.96l92.37-62.66c2.51-1.7,5.37-2.52,8.2-2.52,4.21,0,8.37,1.81,11.24,5.26.22.27.53.39.84.39.44,0,.87-.26,1.04-.73l6.3-17.72c1.04-2.93,2.99-5.45,5.57-7.2l65.02-44.1c3.33-2.26,7.24-3.37,11.22-3.37.86,0,1.72.05,2.59.15,2.11.25,4.08.37,5.94.37,10.35,0,17.16-3.54,23.62-6.62.79-.37,1.6-.55,2.39-.55m0-4.58h0c-1.51,0-2.97.33-4.35.99l-1.08.51c-6.08,2.91-11.83,5.66-20.58,5.66-1.73,0-3.54-.11-5.4-.33-1.04-.12-2.09-.19-3.13-.19-5.02,0-9.79,1.44-13.8,4.16l-65.02,44.1c-3.4,2.31-5.93,5.58-7.31,9.46l-4.58,12.88c-3.09-2.03-6.73-3.13-10.53-3.13-3.85,0-7.58,1.15-10.77,3.31l-92.37,62.66c-8.84,6-19.16,9.17-29.84,9.17-6.39,0-12.67-1.14-18.66-3.38l-191.17-69.48c-.87-.32-1.77-.48-2.69-.48-3.49,0-6.52,2.24-7.54,5.58l-13.65,44.61-12.97-59.21c-.58-2.66-2.45-4.8-5.01-5.72l-90.51-32.9c-.69-.28-4.81-1.95-8-2.86-1.3-.37-2.61-.56-3.92-.56-6.25,0-10.78,4.24-10.78,10.09v76.94c0,12.01,7.54,22.95,18.76,27.23l325.84,124.26c6.17,2.35,12.64,3.54,19.24,3.54,11.36,0,22.24-3.5,31.47-10.12l205.41-147.3c4.17-2.99,9.12-4.57,14.33-4.57.35,0,.7,0,1.05.02,1.97.08,3.87.12,5.65.12,3.99,0,7.46-.21,10.31-.62,6.79-.98,11.72-6.64,11.72-13.45v-80.86c0-5.59-4.54-10.13-10.12-10.13h0Z"/>
  </g>
  <g>
    <path class="cls-4" d="m413.91,298.07c-8.8,0-14.22-2.7-15.4-3.35L68.73,178.32c-7.74-3-11.83-6.91-12.2-11.64-.65-8.3,10.53-15.05,11.81-15.79L260.09,27.18c6.86-21.63,34.93-24.89,51.19-24.89,7.56,0,13.02.67,13.78.77,68.59,4.4,171.93,42.16,213.18,58.2,64.49,25.07,133.81,57.76,141.54,71.76,2.75,4.98,3.04,9.39.85,13.1-5.26,8.91-23.8,10.78-38.43,10.78h0c-3.18,0-5.62-.1-6.82-.15l-188.03,129.99c-11.6,7.53-22.83,11.32-33.45,11.32Zm-129.72-77.47c.57.36,1.72.94,3.96,1.68l117.67,38.87c2.92.97,5.34,1.44,7.38,1.44s3.55-.42,5.04-1.31l16.83-10.07c.19-.11.34-.21.46-.3-.57-.36-1.72-.94-3.96-1.68l-74.75-24.69,17.57-10.51,50.45,16.66c2.93.97,5.34,1.44,7.38,1.44s3.55-.42,5.04-1.31l15.4-9.21c.19-.11.34-.21.46-.3-.57-.36-1.72-.94-3.96-1.68l-54.21-17.9,16.27-9.73,70.99,23.45c2.93.97,5.34,1.44,7.38,1.44s3.55-.42,5.04-1.31l16.84-10.07c.19-.11.34-.21.46-.3-.57-.36-1.72-.94-3.96-1.68l-117.68-38.87c-2.92-.97-5.34-1.44-7.38-1.44s-3.55.42-5.04,1.31l-93.23,55.76c-.19.11-.34.21-.46.3Zm-135.72-44.92c.62.41,1.95,1.1,4.72,2.02l44.92,14.84c3.36,1.11,6.09,1.65,8.33,1.65,1.92,0,3.54-.41,4.94-1.24l71.54-42.79,41.75,13.79c3.36,1.11,6.09,1.65,8.33,1.65,1.92,0,3.54-.41,4.94-1.24l17.41-10.41c.15-.09.27-.17.37-.24-.62-.41-1.95-1.1-4.72-2.02l-146.39-48.35c-3.36-1.11-6.09-1.65-8.33-1.65-1.93,0-3.54.41-4.94,1.24l-17.41,10.41c-.15.09-.27.17-.37.24.62.41,1.95,1.1,4.72,2.02l45.51,15.03-74.94,44.82c-.15.09-.27.17-.37.24Zm255.44-28.78c.53.32,1.52.79,3.33,1.39l119.09,39.34c2.57.85,4.73,1.26,6.59,1.26s3.56-.43,5.12-1.37l45.32-27.1c.22-.13.4-.25.54-.35-.53-.32-1.51-.79-3.32-1.39l-33.93-11.21c-2.57-.85-4.73-1.26-6.59-1.26s-3.56.43-5.12,1.37l-24.21,14.48-37.8-12.49,75.52-45.16c.22-.13.4-.25.54-.35-.53-.32-1.52-.79-3.32-1.39l-36.26-11.98c-2.57-.85-4.73-1.26-6.59-1.26s-3.56.43-5.12,1.37l-93.23,55.76c-.22.13-.4.25-.54.35Zm-73.1-24.12c.55.32,1.55.79,3.35,1.38l36.03,11.9c2.57.85,4.73,1.26,6.59,1.26s3.56-.43,5.12-1.37l93.24-55.76c.22-.13.4-.25.54-.35-.53-.32-1.52-.79-3.33-1.39l-37.9-12.52c-2.94-.97-5.48-1.4-8.26-1.4-1.72,0-3.6.17-5.74.51l-44.28,7.15c-1.95.29-3.33.49-4.6.49-1.12,0-2.08-.15-3.13-.5l-2.11-.7c-3.28-1.09-3.45-3.06-3.33-5.16v-.13s2.41-20.98,2.41-20.98c.1-.81.25-2-4.89-3.7l-37.67-12.44c-2.57-.85-4.73-1.26-6.59-1.26s-3.56.43-5.12,1.37l-93.23,55.76c-.22.13-.4.25-.54.35.53.32,1.52.79,3.33,1.39l34.86,11.51c2.57.85,4.73,1.26,6.59,1.26s3.56-.43,5.12-1.37l54.72-32.73-2.52,18.65c-.13.76-.37,2.18,6.24,4.37l9.36,3.09c3.76,1.24,6.88,1.8,10.11,1.8,1.8,0,3.7-.17,5.79-.54l41.35-6.76-60.95,36.45c-.23.14-.41.26-.56.36Z"/>
    <path class="cls-3" d="m311.29,4.58c7.92,0,13.55.76,13.55.76,109.47,6.99,339.75,104.89,352.95,128.79,10.15,18.37-20.75,20.49-35.59,20.49-4.46,0-7.47-.19-7.47-.19l-188.67,130.44c-13.26,8.6-24.2,10.92-32.14,10.92-9.26,0-14.44-3.15-14.44-3.15L69.49,176.16c-24.07-9.32,0-23.29,0-23.29L262.04,28.64c5.91-20.72,32.62-24.06,49.24-24.06m-49.15,97.16c2.36,0,4.41-.56,6.3-1.69l50.64-30.29-1.88,13.94c-.5,2.91,1.71,4.84,7.8,6.85l9.36,3.09c3.91,1.29,7.29,1.91,10.82,1.91,1.97,0,3.99-.19,6.18-.57l29.49-4.82-50.65,30.29c-3.6,2.15-2.84,3.87,3.24,5.88l36.03,11.9c2.78.92,5.17,1.38,7.31,1.38,2.36,0,4.41-.56,6.29-1.69l93.24-55.76c3.6-2.15,2.6-3.95-3.24-5.88l-37.9-12.52c-3.07-1.01-5.86-1.52-8.97-1.52-1.87,0-3.86.18-6.11.54l-44.28,7.15c-1.88.27-3.16.46-4.24.46-.85,0-1.59-.11-2.42-.39l-2.11-.7c-1.87-.62-1.85-1.28-1.77-2.85l2.4-20.98c.36-2.82-1.53-4.51-6.45-6.14l-37.67-12.44c-2.78-.92-5.17-1.38-7.31-1.38-2.36,0-4.4.56-6.29,1.69l-93.23,55.76c-3.6,2.15-2.61,3.95,3.24,5.88l34.86,11.51c2.78.92,5.17,1.38,7.31,1.38m270.78,89.44c2.36,0,4.4-.56,6.29-1.69l45.32-27.1c3.6-2.15,2.6-3.95-3.24-5.88l-33.93-11.21c-2.78-.92-5.17-1.38-7.31-1.38-2.36,0-4.41.56-6.3,1.69l-23.31,13.94-32.06-10.59,71.22-42.59c3.6-2.15,2.61-3.95-3.24-5.88l-36.26-11.98c-2.78-.92-5.17-1.38-7.31-1.38-2.36,0-4.41.56-6.29,1.69l-93.23,55.76c-3.6,2.15-2.61,3.95,3.24,5.88l119.09,39.34c2.78.92,5.17,1.38,7.31,1.38m-326.48,5.3c2.38,0,4.37-.52,6.11-1.57l70.65-42.25,40.76,13.46c3.57,1.18,6.53,1.77,9.05,1.77,2.38,0,4.37-.52,6.11-1.57l17.41-10.41c3.6-2.15,2.13-4.11-4.8-6.39l-146.39-48.35c-3.57-1.18-6.52-1.77-9.05-1.77-2.38,0-4.37.52-6.11,1.57l-17.41,10.41c-3.6,2.15-2.13,4.1,4.8,6.39l40.76,13.46-70.65,42.25c-3.6,2.15-2.13,4.11,4.8,6.39l44.92,14.84c3.57,1.18,6.52,1.77,9.05,1.77m206.77,68.39c2.37,0,4.39-.54,6.21-1.63l16.83-10.07c3.6-2.15,2.39-4.02-3.95-6.11l-69.99-23.12,12.37-7.4,49.45,16.33c3.13,1.03,5.78,1.55,8.09,1.55s4.39-.54,6.21-1.63l15.4-9.21c3.6-2.15,2.39-4.02-3.95-6.11l-49.45-16.33,11.08-6.63,70,23.12c3.13,1.03,5.78,1.55,8.1,1.55s4.39-.54,6.21-1.63l16.83-10.07c3.6-2.15,2.39-4.02-3.95-6.11l-117.67-38.87c-3.13-1.03-5.78-1.55-8.1-1.55-2.37,0-4.39.54-6.22,1.63l-93.23,55.76c-3.6,2.15-2.39,4.02,3.95,6.11l117.67,38.87c3.13,1.03,5.78,1.55,8.1,1.55M311.29,0c-28.59,0-47.36,9.1-53.11,25.69l-191.08,123.28c-1.8,1.06-13.59,8.39-12.84,17.89.45,5.69,5.02,10.26,13.59,13.58l.06.02.06.02,329.61,116.33c1.7.92,7.36,3.54,16.34,3.54,11.06,0,22.71-3.92,34.64-11.65l.06-.04.06-.04,187.39-129.56c1.36.06,3.51.12,6.15.12,22.15,0,35.75-4.01,40.41-11.91,1.81-3.07,3.14-8.22-.81-15.37-3.72-6.73-19.62-17.19-47.27-31.1-25.94-13.04-59.84-27.85-95.45-41.69C497.74,43.06,394.19,5.22,325.28.78c-1.04-.13-6.53-.78-14-.78h0Zm-88.8,84.85l89.82-53.72c1.19-.71,2.44-1.04,3.94-1.04,1.62,0,3.54.38,5.87,1.15l37.67,12.44c2.06.68,2.95,1.19,3.31,1.45l-2.37,20.79v.13s-.02.13-.02.13c-.1,1.72-.32,5.73,4.9,7.46l2.11.7c1.28.42,2.5.62,3.85.62,1.44,0,2.97-.22,4.9-.51h.03s.03-.01.03-.01l44.28-7.15c2.02-.33,3.78-.49,5.38-.49,2.52,0,4.84.4,7.54,1.29l36.82,12.16-89.82,53.72c-1.19.71-2.44,1.04-3.94,1.04-1.62,0-3.54-.38-5.87-1.15l-34.95-11.54,47.23-28.25,20.6-12.32-23.69,3.87-29.49,4.82c-2,.34-3.77.51-5.44.51-2.98,0-5.87-.52-9.39-1.68l-9.36-3.09c-3.04-1-4.23-1.74-4.67-2.08l1.85-13.74,1.27-9.42-8.16,4.88-50.64,30.29c-1.19.71-2.44,1.04-3.95,1.04-1.62,0-3.54-.38-5.87-1.15l-33.78-11.16h0Zm186.55,61.62l89.82-53.72c1.19-.71,2.44-1.04,3.94-1.04,1.62,0,3.54.38,5.87,1.15l35.18,11.62-67.81,40.55-8.59,5.14,9.51,3.14,32.06,10.59,1.99.66,1.8-1.08,23.31-13.94c1.19-.71,2.44-1.04,3.95-1.04,1.62,0,3.54.37,5.87,1.15l32.84,10.85-41.91,25.06c-1.19.71-2.44,1.04-3.94,1.04-1.62,0-3.54-.37-5.87-1.15l-118.01-38.98h0Zm-230.51-33.21l13.99-8.37c1.05-.63,2.24-.92,3.76-.92,1.99,0,4.48.5,7.61,1.53l146.39,48.35c.16.05.32.11.47.16l-13.99,8.37c-1.05.63-2.24.92-3.76.92-1.99,0-4.48-.5-7.61-1.54l-40.76-13.46-1.99-.66-1.8,1.08-70.65,42.25c-1.05.63-2.24.92-3.76.92-1.99,0-4.48-.5-7.61-1.53l-44.92-14.84c-.16-.05-.32-.11-.47-.16l67.23-40.2,8.59-5.14-9.51-3.14-40.76-13.46c-.16-.05-.32-.11-.47-.16h0Zm110.72,106.96l89.82-53.72c1.12-.67,2.35-.98,3.87-.98,1.79,0,3.97.43,6.66,1.32l117.3,38.74-13.42,8.03c-1.12.67-2.35.98-3.86.98-1.79,0-3.97-.43-6.66-1.32l-70-23.12-1.99-.66-1.8,1.08-11.08,6.63-8.59,5.14,9.51,3.14,49.08,16.21-11.98,7.17c-1.12.67-2.35.98-3.86.98-1.79,0-3.97-.43-6.66-1.32l-49.45-16.33-1.99-.66-1.8,1.07-12.37,7.4-8.59,5.14,9.51,3.14,69.62,23-13.42,8.03c-1.12.67-2.35.98-3.86.98-1.79,0-3.97-.43-6.66-1.32l-117.3-38.74h0Z"/>
  </g>
  <g>
    <g>
      <path class="cls-7" d="m463.83,565.16c-1.25-.5-2.67-1.06-3.98-1.63-3.04-1.34-4.44-2.9-4.9-3.51l-.48-.64.02-.8c.12-3.83.41-15.04.59-36.34v-.28s.07-.27.07-.27c.71-2.8,4.02-8.01,7.35-13.1,3.79-5.8,7.68-11.75,9.96-18.29l.04-.1.04-.1c7.06-15.42,12.78-33.29,16.34-45.56l.4-1.37,6.25-1.09c8.03-1.4,15.48-4.14,22.13-8.15,49.46-29.82,129.14-54.41,172.23-66.41l2.9-.81v52.01c0,5.63-4.11,10.49-9.57,11.3-2.78.42-6.21.63-10.17.63-2.69,0-5.64-.1-8.76-.29-.57-.03-1.13-.05-1.69-.05-5.84,0-11.43,1.79-16.16,5.19l-181.44,130.11-1.16-.46Z"/>
      <path class="cls-3" d="m690.5,369.73v48.99c0,4.47-3.2,8.38-7.62,9.04-2.95.44-6.38.6-9.84.6-2.97,0-5.94-.12-8.63-.28-.61-.04-1.22-.06-1.83-.06-6.26,0-12.38,1.95-17.49,5.62l-180.43,129.39c-1.33-.53-2.66-1.05-3.9-1.6-2.33-1.02-3.54-2.19-3.98-2.79.12-3.77.41-15.1.59-36.39.67-2.66,4.81-8.99,7.05-12.43,3.85-5.9,7.82-11.96,10.2-18.77,7.06-15.42,12.8-33.26,16.45-45.88l4.84-.84c8.32-1.45,16.02-4.29,22.91-8.44,48.89-29.47,127.22-53.78,171.66-66.16m4.58-6.03l-5.81,1.62c-43.2,12.03-123.1,36.7-172.8,66.65-6.4,3.86-13.58,6.5-21.34,7.85l-4.84.84-2.82.49-.8,2.75c-3.54,12.21-9.22,29.96-16.22,45.25l-.09.19-.07.2c-2.19,6.27-6,12.11-9.69,17.75-4.33,6.63-6.96,10.99-7.68,13.84l-.13.53v.55c-.19,21.26-.48,32.46-.6,36.29l-.05,1.61.97,1.28c.7.94,2.4,2.74,5.81,4.23,1.34.59,2.78,1.16,4.06,1.66l2.32.92,2.03-1.46,180.43-129.39c4.34-3.11,9.47-4.76,14.82-4.76.52,0,1.04.02,1.55.05,3.17.19,6.17.29,8.9.29,4.08,0,7.62-.22,10.51-.65,6.57-.98,11.52-6.82,11.52-13.57v-55.02h0Z"/>
    </g>
    <g>
      <path class="cls-7" d="m73,467.1c-10.34-3.94-17.28-14.02-17.28-25.09v-57.26l36.2,12.35c6.55,2.24,13.38,3.37,20.31,3.37,5.84,0,11.67-.82,17.33-2.44l1.54-.44.94,1.29c6.84,9.35,17.39,15.58,28.96,17.07,27.54,3.57,96.5,30.29,194.17,75.24,1.91.88,3.2,2.84,3.21,4.87l.06,4.07c.03,1.68.05,3.42.05,5.27v55.96s-.39.58-.39.58c-.36.53-1.8,2.39-5.4,3.95-2.86,1.24-6.07,2.48-9.52,3.67l-.79.27-269.39-102.73Z"/>
      <path class="cls-3" d="m58.01,387.94l33.17,11.31c6.78,2.32,13.87,3.49,21.05,3.49,6.07,0,12.13-.86,17.96-2.53,7.09,9.7,17.98,16.37,30.51,17.99,27.32,3.54,96.04,30.19,193.51,75.05,1.1.51,1.87,1.66,1.88,2.81l.05,3.43c.03,1.87.06,3.81.06,5.89v55.27c-.41.61-1.7,1.95-4.41,3.12-2.86,1.24-6.02,2.45-9.35,3.61l-268.62-102.44c-9.52-3.63-15.81-12.76-15.81-22.95v-54.06m-4.58-6.4v60.46c0,12.01,7.54,22.95,18.75,27.23l268.62,102.44,1.55.59,1.57-.54c3.51-1.21,6.77-2.47,9.68-3.73,4.05-1.76,5.81-3.92,6.38-4.77l.78-1.16v-1.4s0-55.27,0-55.27c0-1.92-.03-3.7-.05-5.42v-.54s-.06-3.43-.06-3.43c-.02-2.88-1.85-5.66-4.55-6.9-97.87-45.05-167.07-71.84-194.83-75.43-10.94-1.42-20.93-7.3-27.4-16.15l-1.89-2.58-3.07.88c-5.45,1.56-11.07,2.35-16.7,2.35-6.68,0-13.26-1.09-19.57-3.25l-33.17-11.31-6.06-2.07h0Z"/>
    </g>
  </g>
  <rect class="cls-1" x="58.32" y="234.48" width="16.62" height="16.62" rx="7.98" ry="7.98"/>
  <rect class="cls-1" x="74.94" y="217.86" width="16.62" height="16.62" rx="7.98" ry="7.98"/>
  <rect class="cls-1" x="78.21" y="242.92" width="16.62" height="16.62" rx="7.98" ry="7.98"/>
  <rect class="cls-1" x="111.72" y="485.92" width="190.76" height="11.86" rx="5.69" ry="5.69" transform="translate(188.63 -41.5) rotate(20.85)"/>
  <rect class="cls-1" x="605.17" y="119.52" width="44.16" height="11.86" rx="5.69" ry="5.69" transform="translate(107.47 -247.38) rotate(24.34)"/>
  <path class="cls-1" d="m381.53,493.5l24.53,41.26c1.39,2.33,4.77,2.28,6.1-.08l23.35-41.83c.39-.7-.54-1.37-1.09-.78-17.27,18.59-34.54,18.8-51.81.62-.56-.59-1.49.11-1.08.8Z"/>
  <path class="cls-1" d="m602.52,260.85l-99.73,73.26c-3.3,2.23-9.46,1.71-14-3.93-4.54-5.64-3.31-12.16-.01-14.4l105.62-66.93c3.3-2.23,7.83-1.36,10.06,1.94h0c2.23,3.3,1.36,7.83-1.94,10.06Z"/>
</svg>