<?xml version="1.0" encoding="UTF-8"?>
<svg id="Layer_1" data-name="Layer 1" xmlns="http://www.w3.org/2000/svg" viewBox="0 0 719.64 646.86">
  <defs>
    <style>
      .cls-1 {
        fill: #232120;
      }
    </style>
  </defs>
  <path class="cls-1" d="m493.17,606.55s-1.86-.62-3.2-.89c-2.61-.68-5.46-1.34-8.52-1.95-11.49-2.92-20.4-6.12-27.15-9.08-11.49-5.04-18.47-14.38-18.47-24.41,0,0,.41-10.88.64-37.96.12-13.79,15.88-28.89,19.09-39.77h0c11.54-24.7,19.88-58.71,19.88-58.71l20-3.48c5.25-.91,10.33-2.69,14.89-5.44,60.03-36.19,159.05-64.3,198.13-74.55,9.67-2.53,14.11-13.55,9.11-22.21-21.11-36.59-69.89-56.65-69.89-56.65,0,0-21.4,16.54-12.48,16.54,6.05,0,24.76,18.4,36.15,30.21,4.02,4.17,2.24,11.13-3.31,12.81-45.95,13.94-149.97,64.2-171.02,74.46-2.54,1.24-5.15,2.24-7.87,3.01l-16.03,4.58c-4.2,1.2-7.7,4.13-9.61,8.07l-11.47,23.59c-3.41,7.02-7.62,13.63-12.52,19.7l-5.48,6.77c-8.1,10.02-22.04,13.09-33.59,7.38-47.19-23.33-164.46-80.56-187.14-84.5-28.53-4.96-49.93-18.2-58.84-39.7-8.92-21.51-57.06,6.62-80.24,0-23.18-6.62-24.96-26.47-24.96-26.47v-16.28c0-8.82-10.57-13.34-16.95-7.25l-27.72,26.45c-8.08,7.71-5.1,21.24,5.47,24.84l81.03,27.64c10.86,3.7,22.77,2.8,32.94-2.51l12.6-6.57,1.91,10.07c1.73,9.07,9.09,15.93,18.25,17.12,38.88,5.04,134.03,46.3,202.89,77.99,9.6,4.42,15.82,13.94,15.92,24.5.03,2.87.11,6.07.11,9.66v56.51c0,10.2-7.24,19.61-18.96,24.7-6.08,2.64-13.84,5.47-23.61,8.14-5.94,1.06-15.68,3.55-15.68,3.55-10.09,2.95-15.93,6.43-15.93,10.18,0,10.54,46.39,30.23,103.62,30.23s103.61-19.69,103.61-30.23c0-3.7-5.72-7.16-15.61-10.08Z"/>
  <ellipse class="cls-1" cx="205.03" cy="368.41" rx="17.32" ry="10.81"/>
  <path class="cls-1" d="m383.55,427.55c-5.47,0-10.4,1.42-13.94,3.68-1.56-1.4-4.16-2.33-7.11-2.33-4.78,0-8.66,2.42-8.66,5.4s3.88,5.4,8.66,5.4c.54,0,1.06-.04,1.58-.1,0,.03-.02.07-.02.1,0,6.72,8.73,12.16,19.49,12.16s19.49-5.44,19.49-12.16-8.72-12.16-19.49-12.16Z"/>
  <ellipse class="cls-1" cx="618.85" cy="318.07" rx="28.84" ry="17.99"/>
  <path class="cls-1" d="m96.32,317.95c.3-.75.5-1.53.5-2.34,0-5.37-6.98-9.73-15.59-9.73s-15.59,4.35-15.59,9.73,6.98,9.72,15.59,9.72c1.08,0,2.12-.07,3.14-.2,1.46,1.69,4.3,2.86,7.6,2.86,4.78,0,8.66-2.42,8.66-5.4,0-1.99-1.75-3.71-4.31-4.65Z"/>
  <ellipse class="cls-1" cx="79" cy="337.94" rx="8.66" ry="5.4"/>
  <ellipse class="cls-1" cx="559.69" cy="352.27" rx="8.66" ry="5.4"/>
  <ellipse class="cls-1" cx="294.71" cy="395.43" rx="8.66" ry="5.4"/>
  <path class="cls-1" d="m64.3,187.09s-4.45-1.84-7.69-2.76c-4.43-1.26-8.98.59-8.98,5.2v77.9c0,10.31,6.37,19.56,16,23.23l329.88,125.8c15.69,5.98,33.34,3.7,46.99-6.09l207.96-149.13c5.37-3.85,11.87-5.74,18.46-5.47,5.1.21,10.76.2,15.3-.46,4.52-.65,7.89-4.47,7.89-9.03v-81.86c0-4.13-4.3-6.84-8.03-5.07-7.72,3.67-15.92,8-29.92,6.33-4.92-.59-9.88.47-13.98,3.25l-65.82,44.65c-2.61,1.77-4.58,4.32-5.64,7.29l-6.38,17.94c-.29.81-1.35,1-1.9.34h0c-4.87-5.85-13.39-7.04-19.69-2.77l-93.51,63.43c-15.69,10.65-35.58,13.02-53.33,6.36l-193.5-70.33c-1.8-.65-3.79.33-4.35,2.17l-15.25,49.86c-1.01,3.29-5.74,3.1-6.47-.26l-14.18-64.74c-.25-1.12-1.05-2.04-2.13-2.43l-91.72-33.34Z"/>
  <path class="cls-1" d="m681.55,131.15C668.19,106.96,435.06,7.84,324.23.77c0,0-54.74-7.38-63.58,23.59l-194.94,125.77s-24.37,14.15,0,23.58l334.07,117.91s18.08,11,47.16-7.86l191.01-132.06s56.96,3.64,43.6-20.55Zm-466.79-51.8l94.39-56.45c3.64-2.18,7.85-2.27,13.77-.32l38.14,12.6c4.97,1.64,6.89,3.36,6.53,6.21l-2.43,21.24c-.09,1.59-.11,2.26,1.79,2.89l2.13.7c1.9.63,3.33.42,6.74-.07l44.82-7.24c6.05-.98,10.29-.66,15.27.99l38.37,12.67c5.92,1.95,6.93,3.77,3.28,5.95l-94.39,56.45c-3.64,2.18-7.85,2.28-13.77.32l-36.48-12.05c-6.16-2.03-6.93-3.77-3.28-5.95l51.27-30.66-29.85,4.88c-6.19,1.06-11.06.68-17.21-1.36l-9.48-3.13c-6.16-2.03-8.4-3.99-7.89-6.93l1.9-14.11-51.27,30.66c-3.64,2.18-7.85,2.27-13.77.32l-35.29-11.66c-5.92-1.96-6.93-3.78-3.28-5.95Zm-19.58,113.13l-45.47-15.02c-7.02-2.32-8.5-4.3-4.86-6.47l71.52-42.77-41.26-13.63c-7.02-2.32-8.5-4.3-4.86-6.47l17.62-10.54c3.64-2.18,8.33-2.12,15.35.2l148.21,48.95c7.02,2.32,8.5,4.3,4.86,6.47l-17.63,10.54c-3.64,2.18-8.33,2.11-15.35-.2l-41.26-13.63-71.52,42.77c-3.64,2.18-8.33,2.12-15.35-.2Zm319.17,12.93l-17.04,10.19c-3.64,2.18-8.07,2.2-14.49.08l-70.87-23.41-11.22,6.71,50.07,16.54c6.42,2.12,7.64,4.01,4,6.19l-15.59,9.32c-3.64,2.18-8.07,2.2-14.49.08l-50.07-16.54-12.53,7.49,70.86,23.41c6.42,2.12,7.64,4.01,4,6.19l-17.04,10.19c-3.64,2.18-8.07,2.2-14.49.08l-119.13-39.35c-6.42-2.12-7.64-4.01-4-6.19l94.39-56.45c3.64-2.18,8.07-2.2,14.49-.08l119.13,39.35c6.42,2.12,7.64,4.01,4,6.19Zm72.77-45.66l-45.89,27.44c-3.64,2.18-7.85,2.27-13.77.32l-120.57-39.82c-5.92-1.96-6.93-3.78-3.28-5.95l94.39-56.45c3.64-2.18,7.85-2.27,13.77-.32l36.71,12.13c5.92,1.96,6.93,3.77,3.28,5.95l-72.1,43.12,32.45,10.72,23.6-14.11c3.64-2.18,7.85-2.28,13.77-.32l34.35,11.35c5.92,1.95,6.93,3.77,3.28,5.95Z"/>
  <g>
    <path class="cls-1" d="m497.44,445.21l-4.9.85c-3.7,12.78-9.51,30.83-16.66,46.45-2.41,6.89-6.42,13.03-10.32,19-2.27,3.48-6.46,9.88-7.14,12.58-.18,21.55-.48,33.02-.6,36.84.45.6,1.67,1.79,4.03,2.83,1.26.55,2.6,1.08,3.95,1.62l182.66-130.99c5.69-4.08,12.58-6.05,19.56-5.63,5.88.36,13.14.51,18.69-.32,4.47-.67,7.71-4.63,7.71-9.15v-49.6c-45,12.53-124.29,37.15-173.79,66.98-6.98,4.21-14.78,7.08-23.2,8.55Z"/>
    <path class="cls-1" d="m355.96,562.98v-55.95c0-2.11-.03-4.07-.06-5.96l-.05-3.48c0-1.16-.79-2.33-1.91-2.84-98.67-45.41-168.25-72.4-195.91-75.98-12.69-1.64-23.71-8.4-30.89-18.21-5.9,1.69-12.04,2.56-18.18,2.56-7.27,0-14.45-1.19-21.31-3.54l-33.58-11.45v54.73c0,10.31,6.37,19.56,16,23.23l271.95,103.71c3.38-1.17,6.57-2.39,9.47-3.65,2.74-1.19,4.05-2.55,4.46-3.16Z"/>
  </g>
</svg>