<?xml version="1.0" encoding="UTF-8"?>
<svg id="Layer_1" data-name="Layer 1" xmlns="http://www.w3.org/2000/svg" viewBox="0 0 720 647.18">
  <defs>
    <style>
      .cls-1 {
        fill: #fff;
      }
    </style>
  </defs>
  <path class="cls-1" d="m493.42,606.85s-1.86-.62-3.2-.89c-2.61-.68-5.46-1.34-8.53-1.95-11.5-2.92-20.41-6.12-27.17-9.09-11.49-5.05-18.48-14.39-18.48-24.42,0,0,.41-10.88.64-37.98.12-13.79,15.89-28.91,19.1-39.79h0c11.55-24.71,19.89-58.74,19.89-58.74l20.01-3.48c5.25-.91,10.33-2.7,14.89-5.45,60.06-36.2,159.13-64.34,198.23-74.59,9.67-2.54,14.11-13.56,9.12-22.22-21.12-36.61-69.92-56.68-69.92-56.68,0,0-21.41,16.55-12.49,16.55,6.06,0,24.77,18.41,36.16,30.23,4.02,4.17,2.24,11.14-3.31,12.82-45.98,13.94-150.04,64.23-171.1,74.5-2.54,1.24-5.16,2.24-7.87,3.01l-16.04,4.58c-4.21,1.2-7.7,4.14-9.62,8.07l-11.47,23.6c-3.42,7.02-7.62,13.64-12.53,19.71l-5.48,6.78c-8.1,10.02-22.05,13.1-33.6,7.39-47.21-23.34-164.54-80.6-187.23-84.54-28.54-4.97-49.95-18.21-58.87-39.72-8.92-21.52-57.09,6.62-80.28,0-23.19-6.62-24.98-26.48-24.98-26.48v-16.28c0-8.82-10.57-13.35-16.96-7.26l-27.73,26.47c-8.08,7.71-5.1,21.25,5.47,24.86l81.07,27.65c10.87,3.71,22.78,2.8,32.96-2.51l12.6-6.58,1.92,10.07c1.73,9.08,9.09,15.94,18.26,17.13,38.9,5.04,134.09,46.32,202.99,78.02,9.6,4.42,15.83,13.95,15.93,24.52.03,2.88.11,6.07.11,9.67v56.54c0,10.21-7.24,19.62-18.96,24.71-6.08,2.64-13.85,5.47-23.62,8.15-5.95,1.06-15.69,3.56-15.69,3.56-10.09,2.95-15.94,6.44-15.94,10.18,0,10.55,46.41,30.25,103.67,30.25s103.67-19.7,103.67-30.25c0-3.7-5.72-7.16-15.62-10.09Z"/>
  <ellipse class="cls-1" cx="205.13" cy="368.59" rx="17.33" ry="10.81"/>
  <path class="cls-1" d="m383.74,427.76c-5.47,0-10.41,1.42-13.95,3.68-1.56-1.41-4.16-2.33-7.11-2.33-4.78,0-8.66,2.42-8.66,5.41s3.88,5.41,8.66,5.41c.54,0,1.06-.04,1.58-.1,0,.03-.02.07-.02.1,0,6.72,8.73,12.17,19.5,12.17s19.5-5.45,19.5-12.17-8.73-12.17-19.5-12.17Z"/>
  <ellipse class="cls-1" cx="619.16" cy="318.23" rx="28.85" ry="18"/>
  <path class="cls-1" d="m96.36,318.1c.3-.75.5-1.53.5-2.34,0-5.37-6.98-9.73-15.59-9.73s-15.6,4.36-15.6,9.73,6.98,9.73,15.6,9.73c1.08,0,2.13-.07,3.14-.2,1.46,1.7,4.3,2.86,7.6,2.86,4.78,0,8.67-2.42,8.67-5.41,0-1.99-1.75-3.71-4.31-4.65Z"/>
  <ellipse class="cls-1" cx="79.04" cy="338.1" rx="8.66" ry="5.41"/>
  <ellipse class="cls-1" cx="559.97" cy="352.45" rx="8.66" ry="5.41"/>
  <ellipse class="cls-1" cx="294.85" cy="395.62" rx="8.66" ry="5.41"/>
  <path class="cls-1" d="m64.33,187.18s-4.46-1.84-7.7-2.76c-4.43-1.26-8.98.59-8.98,5.2v77.93c0,10.32,6.37,19.57,16.01,23.24l330.04,125.86c15.7,5.99,33.36,3.7,47.01-6.09l208.06-149.2c5.37-3.85,11.87-5.74,18.47-5.47,5.1.21,10.76.2,15.31-.46,4.52-.65,7.9-4.47,7.9-9.04v-81.91c0-4.13-4.31-6.84-8.04-5.07-7.72,3.67-15.92,8.01-29.94,6.33-4.92-.59-9.89.47-13.99,3.25l-65.85,44.67c-2.61,1.77-4.58,4.32-5.64,7.29l-6.39,17.95c-.29.81-1.35,1-1.9.34h0c-4.88-5.85-13.39-7.05-19.7-2.77l-93.56,63.46c-15.7,10.65-35.6,13.02-53.36,6.36l-193.6-70.36c-1.8-.66-3.79.33-4.35,2.17l-15.26,49.89c-1.01,3.3-5.74,3.1-6.48-.26l-14.19-64.77c-.25-1.12-1.05-2.04-2.13-2.43l-91.77-33.35Z"/>
  <path class="cls-1" d="m681.89,131.22C668.52,107.02,435.28,7.85,324.39.77c0,0-54.76-7.38-63.61,23.6l-195.04,125.83s-24.38,14.16,0,23.59l334.24,117.97s18.09,11.01,47.19-7.86l191.1-132.12s56.99,3.64,43.62-20.56Zm-467.02-51.82l94.44-56.48c3.65-2.18,7.85-2.28,13.78-.32l38.16,12.6c4.98,1.64,6.89,3.36,6.53,6.22l-2.43,21.25c-.09,1.59-.11,2.26,1.79,2.89l2.13.7c1.9.63,3.33.42,6.74-.07l44.85-7.24c6.05-.98,10.3-.66,15.27.99l38.39,12.68c5.92,1.96,6.93,3.78,3.29,5.96l-94.44,56.48c-3.64,2.18-7.85,2.28-13.78.32l-36.5-12.05c-6.16-2.03-6.93-3.78-3.29-5.96l51.3-30.68-29.87,4.88c-6.2,1.06-11.06.68-17.22-1.36l-9.48-3.13c-6.16-2.03-8.4-3.99-7.9-6.94l1.9-14.12-51.3,30.68c-3.65,2.18-7.86,2.28-13.78.32l-35.31-11.66c-5.93-1.96-6.93-3.78-3.29-5.96Zm-19.59,113.18l-45.5-15.03c-7.02-2.32-8.51-4.3-4.86-6.48l71.56-42.79-41.28-13.64c-7.02-2.32-8.51-4.3-4.86-6.48l17.63-10.55c3.64-2.18,8.34-2.12,15.36.2l148.28,48.98c7.02,2.32,8.51,4.3,4.86,6.48l-17.64,10.55c-3.64,2.18-8.34,2.12-15.36-.2l-41.28-13.64-71.56,42.79c-3.64,2.18-8.33,2.12-15.35-.2Zm319.33,12.94l-17.05,10.2c-3.64,2.18-8.07,2.2-14.5.08l-70.9-23.42-11.22,6.71,50.09,16.55c6.42,2.12,7.65,4.01,4,6.19l-15.59,9.33c-3.64,2.18-8.07,2.2-14.49.08l-50.09-16.55-12.53,7.49,70.9,23.42c6.42,2.12,7.65,4.01,4,6.19l-17.05,10.2c-3.64,2.18-8.07,2.2-14.5.08l-119.19-39.37c-6.42-2.12-7.65-4.01-4-6.19l94.44-56.48c3.64-2.18,8.07-2.21,14.5-.08l119.19,39.37c6.42,2.12,7.65,4.01,4,6.19Zm72.81-45.68l-45.91,27.45c-3.64,2.18-7.85,2.28-13.78.32l-120.63-39.84c-5.93-1.96-6.93-3.78-3.29-5.96l94.44-56.48c3.64-2.18,7.85-2.28,13.78-.32l36.73,12.13c5.93,1.96,6.93,3.78,3.29,5.96l-72.14,43.14,32.47,10.72,23.61-14.12c3.64-2.18,7.85-2.28,13.78-.32l34.36,11.35c5.92,1.96,6.93,3.78,3.29,5.95Z"/>
  <g>
    <path class="cls-1" d="m497.68,445.43l-4.9.85c-3.7,12.79-9.51,30.85-16.67,46.47-2.41,6.9-6.43,13.04-10.33,19.01-2.28,3.48-6.47,9.89-7.15,12.59-.18,21.56-.48,33.04-.6,36.86.45.6,1.68,1.79,4.04,2.83,1.26.55,2.6,1.08,3.95,1.62l182.75-131.05c5.69-4.08,12.59-6.06,19.57-5.63,5.88.36,13.15.51,18.7-.32,4.48-.67,7.71-4.63,7.71-9.16v-49.63c-45.02,12.54-124.36,37.16-173.88,67.02-6.98,4.21-14.79,7.08-23.21,8.55Z"/>
    <path class="cls-1" d="m356.14,563.26v-55.98c0-2.11-.03-4.07-.06-5.97l-.05-3.48c0-1.16-.79-2.33-1.91-2.84-98.72-45.44-168.33-72.43-196.01-76.02-12.69-1.64-23.72-8.4-30.9-18.22-5.91,1.69-12.04,2.56-18.19,2.56-7.27,0-14.45-1.19-21.32-3.54l-33.59-11.46v54.76c0,10.32,6.37,19.57,16.01,23.24l272.08,103.76c3.38-1.17,6.57-2.39,9.47-3.65,2.74-1.19,4.05-2.55,4.46-3.16Z"/>
  </g>
</svg>